<?xml version="1.0"?>
<svg width="203.60000610351562" height="34.81999969482422" xmlns="http://www.w3.org/2000/svg" xmlns:svg="http://www.w3.org/2000/svg" xmlns:xlink="http://www.w3.org/1999/xlink" version="1.1">
 <g class="layer">
  <title>Layer 1</title>
  <use id="svg_4" transform="matrix(1 0 0 1 0 0) matrix(0.545119 0 0 0.552357 0.685039 28.6926)" x="-0.69" xlink:href="#svg_3" y="-21.66"/>
  <use id="svg_6" transform="matrix(0.544555 0 0 0.491725 0.21706 0.0375931)" x="0.27" xlink:href="#svg_5" y="0.13"/>
  <rect fill="#000" height="0" id="svg_7" stroke="#000000" width="0" x="26.45" y="7.1"/>
 </g>
 <defs>
  <symbol height="100%" id="svg_3" version="1.1" viewBox="3.119999885559082 -34.41999816894531 242.32000732421875 34.81999969482422" width="100%" xmlns="http://www.w3.org/2000/svg" xmlns:svgjs="http://svgjs.com/svgjs">
   <g fill="#000">
    <path d="m3.12,0l12.75,0l0,-2.08l-10.53,0l0,-14.09l9.2,0l0,-2.08l-9.2,0l0,-13.7l10.53,0l0,-2.07l-12.75,0l0,34.02zm31.75,0l2.76,0l7.37,-34.02l-2.17,0l-6.38,30.21l-0.3,0l-6.33,-30.21l-2.32,0l7.37,34.02zm23.39,0l12.76,0l0,-2.08l-10.54,0l0,-14.09l9.2,0l0,-2.08l-9.2,0l0,-13.7l10.54,0l0,-2.07l-12.76,0l0,34.02zm40.05,0l2.33,0l-4.16,-14.84c1.55,-0.59 2.55,-1.64 3,-3.16c0.44,-1.52 0.66,-3.58 0.66,-6.18c0,-2.18 -0.13,-3.93 -0.39,-5.27c-0.26,-1.34 -0.89,-2.43 -1.88,-3.29c-0.99,-0.86 -2.51,-1.28 -4.55,-1.28l-7.81,0l0,34.02l2.22,0l0,-14.29l5.49,0c0.5,0 0.87,-0.02 1.14,-0.05l3.95,14.34zm-2,-17.21c-0.67,0.59 -1.72,0.89 -3.14,0.89l-5.44,0l0,-15.63l5.44,0c1.42,0 2.47,0.3 3.14,0.89c0.68,0.6 1.11,1.42 1.31,2.48c0.2,1.05 0.3,2.53 0.3,4.45c0,1.88 -0.1,3.35 -0.3,4.42c-0.2,1.07 -0.63,1.91 -1.31,2.5zm22.58,17.21l2.17,0l0,-13.7l7.37,-20.32l-2.22,0l-6.04,17.26l-0.24,0l-6.09,-17.26l-2.27,0l7.32,20.32l0,13.7zm22.55,-34.02l0,34.02l7.12,0c3,0 5.02,-0.81 6.06,-2.42c1.04,-1.62 1.56,-3.78 1.56,-6.48c0,-2.34 -0.34,-4.23 -1.02,-5.66c-0.67,-1.44 -1.98,-2.35 -3.93,-2.75l0,-0.2c1.65,-0.39 2.84,-1.25 3.59,-2.57c0.74,-1.32 1.11,-3.13 1.11,-5.44c0,-2.77 -0.54,-4.88 -1.61,-6.33c-1.07,-1.45 -2.91,-2.17 -5.51,-2.17l-7.37,0zm10.93,14.02c-0.93,1.13 -2.23,1.7 -3.91,1.7l-4.85,0l0,-13.65l4.85,0c2.01,0 3.4,0.52 4.16,1.56c0.75,1.04 1.13,2.79 1.13,5.27c0,2.27 -0.46,3.98 -1.38,5.12zm0.42,16.29c-0.78,1.09 -2.19,1.63 -4.23,1.63l-4.95,0l0,-14.14l4.95,0c1.91,0 3.29,0.54 4.13,1.63c0.84,1.09 1.26,2.9 1.26,5.44c0,2.54 -0.39,4.35 -1.16,5.44zm20.52,2.84c1.11,0.85 2.93,1.27 5.47,1.27c2.54,0 4.36,-0.42 5.46,-1.27c1.11,-0.84 1.84,-2.41 2.2,-4.72c0.36,-2.31 0.55,-6.11 0.55,-11.42c0,-5.31 -0.19,-9.12 -0.55,-11.43c-0.36,-2.3 -1.09,-3.88 -2.2,-4.72c-1.1,-0.84 -2.92,-1.26 -5.46,-1.26c-2.54,0 -4.36,0.42 -5.47,1.26c-1.1,0.84 -1.84,2.42 -2.2,4.72c-0.36,2.31 -0.54,6.12 -0.54,11.43c0,5.31 0.18,9.11 0.54,11.42c0.36,2.31 1.1,3.88 2.2,4.72zm9.42,-1.65c-0.76,0.56 -2.07,0.84 -3.95,0.84c-1.92,0 -3.25,-0.28 -4.01,-0.84c-0.76,-0.56 -1.28,-1.86 -1.56,-3.91c-0.28,-2.04 -0.42,-5.57 -0.42,-10.58c0,-5.01 0.14,-8.54 0.42,-10.59c0.28,-2.04 0.8,-3.34 1.56,-3.9c0.76,-0.56 2.09,-0.84 4.01,-0.84c1.88,0 3.19,0.28 3.95,0.84c0.76,0.56 1.29,1.86 1.59,3.9c0.29,2.05 0.44,5.58 0.44,10.59c0,5.01 -0.15,8.54 -0.44,10.58c-0.3,2.05 -0.83,3.35 -1.59,3.91zm19.64,-31.5l0,34.02l6.47,0c2.54,0 4.36,-0.41 5.47,-1.24c1.1,-0.82 1.84,-2.36 2.2,-4.62c0.36,-2.26 0.54,-5.98 0.54,-11.15c0,-5.18 -0.18,-8.9 -0.54,-11.15c-0.36,-2.26 -1.1,-3.8 -2.2,-4.63c-1.11,-0.82 -2.93,-1.23 -5.47,-1.23l-6.47,0zm6.47,31.94l-4.3,0l0,-29.87l4.3,0c1.92,0 3.25,0.27 4.01,0.82c0.76,0.54 1.29,1.81 1.58,3.81c0.3,1.99 0.45,5.43 0.45,10.31c0,4.88 -0.15,8.31 -0.45,10.31c-0.29,1.99 -0.82,3.26 -1.58,3.81c-0.76,0.54 -2.09,0.81 -4.01,0.81zm27.06,2.08l2.17,0l0,-13.7l7.37,-20.32l-2.22,0l-6.04,17.26l-0.25,0l-6.08,-17.26l-2.27,0l7.32,20.32l0,13.7z"/>
   </g>
  </symbol>
  <symbol height="100%" id="svg_5" version="1.1" viewBox="0.8899999856948853 -34.41999816894531 203.60000610351562 34.81999969482422" width="100%" xmlns="http://www.w3.org/2000/svg" xmlns:svgjs="http://svgjs.com/svgjs">
   <g fill="#000">
    <path d="m4.9,0.12c1.38,0.18 2.67,0.28 3.85,0.28c1.98,0 3.57,-0.24 4.78,-0.72c1.2,-0.48 2.16,-1.54 2.89,-3.19c0.72,-1.65 1.09,-4.16 1.09,-7.52c0,-2.27 -0.22,-4.09 -0.65,-5.44c-0.39,-1.25 -0.92,-2.12 -1.58,-2.62c-0.66,-0.49 -1.45,-0.86 -2.37,-1.09l-2.82,-0.69c-0.69,-0.16 -1.13,-0.44 -1.31,-0.84c-0.18,-0.4 -0.27,-1.22 -0.27,-2.47c0,-0.89 0.03,-1.54 0.1,-1.96c0.06,-0.41 0.21,-0.71 0.44,-0.91c0.2,-0.2 0.52,-0.33 0.96,-0.4c0.45,-0.06 1.17,-0.1 2.16,-0.1c1.02,0 1.93,0.04 2.74,0.1c0.81,0.07 1.31,0.12 1.51,0.15l0,-6.28c-0.13,-0.03 -0.48,-0.11 -1.04,-0.25c-0.56,-0.13 -1.32,-0.26 -2.27,-0.39c-0.96,-0.13 -2.02,-0.2 -3.17,-0.2c-1.98,0 -3.61,0.25 -4.9,0.74c-1.28,0.5 -2.3,1.51 -3.04,3.04c-0.74,1.54 -1.11,3.79 -1.11,6.75c0,2.77 0.25,4.94 0.74,6.51c0.5,1.56 1.3,2.48 2.43,2.74l3.36,0.79c0.79,0.2 1.35,0.41 1.68,0.65c0.33,0.23 0.54,0.58 0.64,1.06c0.1,0.48 0.15,1.29 0.15,2.45c0,1.32 -0.15,2.19 -0.44,2.62c-0.2,0.26 -0.49,0.43 -0.87,0.49c-0.38,0.07 -1,0.1 -1.85,0.1c-1.19,0 -2.99,-0.08 -5.39,-0.25l0,6.19c0.98,0.26 2.17,0.48 3.56,0.66zm35.97,0c0.91,-0.18 1.64,-0.4 2.2,-0.66l0,-6.19c-0.98,0.17 -2.11,0.25 -3.36,0.25c-0.95,0 -1.61,-0.2 -1.98,-0.59c-0.36,-0.4 -0.58,-1.24 -0.66,-2.52c-0.09,-1.29 -0.13,-3.76 -0.13,-7.42c0,-3.66 0.04,-6.13 0.13,-7.42c0.08,-1.29 0.3,-2.13 0.66,-2.52c0.37,-0.4 1.03,-0.6 1.98,-0.6c0.96,0 2.05,0.09 3.27,0.25l0,-6.33c-0.4,-0.23 -1.03,-0.42 -1.91,-0.57c-0.87,-0.15 -1.79,-0.22 -2.74,-0.22c-2.61,0 -4.54,0.54 -5.81,1.63c-1.27,1.09 -2.12,2.83 -2.55,5.22c-0.43,2.39 -0.64,5.91 -0.64,10.56c0,4.71 0.19,8.25 0.59,10.61c0.4,2.35 1.23,4.08 2.5,5.16c1.27,1.09 3.24,1.64 5.91,1.64c0.79,0 1.64,-0.1 2.54,-0.28zm14.72,-0.12l7.61,0l0,-34.02l-7.61,0l0,34.02zm20.87,0l13.74,0l0,-6.87l-6.13,0l0,-6.88l5.39,0l0,-6.87l-5.39,0l0,-6.53l6.13,0l0,-6.87l-13.74,0l0,34.02zm38.32,0l6.53,0l0,-34.02l-7.22,0l0,13.15l-0.3,0l-3.75,-13.15l-6.98,0l0,34.02l7.22,0l0,-15.03l0.2,0l4.3,15.03zm30.84,0.12c0.9,-0.18 1.64,-0.4 2.2,-0.66l0,-6.19c-0.99,0.17 -2.11,0.25 -3.36,0.25c-0.96,0 -1.62,-0.2 -1.98,-0.59c-0.37,-0.4 -0.59,-1.24 -0.67,-2.52c-0.08,-1.29 -0.12,-3.76 -0.12,-7.42c0,-3.66 0.04,-6.13 0.12,-7.42c0.08,-1.29 0.3,-2.13 0.67,-2.52c0.36,-0.4 1.02,-0.6 1.98,-0.6c0.95,0 2.04,0.09 3.26,0.25l0,-6.33c-0.4,-0.23 -1.03,-0.42 -1.9,-0.57c-0.88,-0.15 -1.79,-0.22 -2.75,-0.22c-2.6,0 -4.54,0.54 -5.81,1.63c-1.27,1.09 -2.12,2.83 -2.55,5.22c-0.43,2.39 -0.64,5.91 -0.64,10.56c0,4.71 0.2,8.25 0.59,10.61c0.4,2.35 1.23,4.08 2.5,5.16c1.27,1.09 3.24,1.64 5.91,1.64c0.79,0 1.64,-0.1 2.55,-0.28zm14.71,-0.12l13.75,0l0,-6.87l-6.13,0l0,-6.88l5.39,0l0,-6.87l-5.39,0l0,-6.53l6.13,0l0,-6.87l-13.75,0l0,34.02zm34.62,0l7.56,0l0,-6.18l1.98,0l0,-6.88l-1.98,0l0,-7.22l-5.44,0l-2.12,7.22l-2.08,0l4.45,-20.96l-7.71,0l-3.86,21.9l0,5.94l9.2,0l0,6.18z"/>
   </g>
  </symbol>
 </defs>
</svg>