<svg class="logo-svg" xmlns="http://www.w3.org/2000/svg" viewBox="0 0 242.32 69.64"><svg xmlns="http://www.w3.org/2000/svg" version="1.1" xlink="http://www.w3.org/1999/xlink" xmlns:svgjs="http://svgjs.com/svgjs" width="203.6" height="34.82" viewBox="0.8899999856948853 -34.41999816894531 203.60000610351562 34.81999969482422" y="0"><g fill="#fff"><path d="M4.9 0.12C6.28 0.3 7.57 0.4 8.75 0.4C10.73 0.4 12.32 0.16 13.53 -0.32C14.73 -0.8 15.69 -1.86 16.42 -3.51C17.14 -5.16 17.51 -7.67 17.51 -11.03C17.51 -13.3 17.29 -15.12 16.86 -16.47C16.47 -17.72 15.94 -18.59 15.28 -19.09C14.62 -19.58 13.83 -19.95 12.91 -20.18L10.09 -20.87C9.4 -21.03 8.96 -21.31 8.78 -21.71C8.6 -22.11 8.51 -22.93 8.51 -24.18C8.51 -25.07 8.54 -25.72 8.61 -26.14C8.67 -26.55 8.82 -26.85 9.05 -27.05C9.25 -27.25 9.57 -27.38 10.01 -27.45C10.46 -27.51 11.18 -27.55 12.17 -27.55C13.19 -27.55 14.1 -27.51 14.91 -27.45C15.72 -27.38 16.22 -27.33 16.42 -27.3L16.42 -33.58C16.29 -33.61 15.94 -33.69 15.38 -33.83C14.82 -33.96 14.06 -34.09 13.11 -34.22C12.15 -34.35 11.09 -34.42 9.94 -34.42C7.96 -34.42 6.33 -34.17 5.04 -33.68C3.76 -33.18 2.74 -32.17 2 -30.64C1.26 -29.1 0.89 -26.85 0.89 -23.89C0.89 -21.12 1.14 -18.95 1.63 -17.38C2.13 -15.82 2.93 -14.9 4.06 -14.64L7.42 -13.85C8.21 -13.65 8.77 -13.44 9.1 -13.2C9.43 -12.97 9.64 -12.62 9.74 -12.14C9.84 -11.66 9.89 -10.85 9.89 -9.69C9.89 -8.37 9.74 -7.5 9.45 -7.07C9.25 -6.81 8.96 -6.64 8.58 -6.58C8.2 -6.51 7.58 -6.48 6.73 -6.48C5.54 -6.48 3.74 -6.56 1.34 -6.73L1.34 -0.54C2.32 -0.28 3.51 -0.06 4.9 0.12Z M40.87 0.12C41.78 -0.06 42.51 -0.28 43.07 -0.54L43.07 -6.73C42.09 -6.56 40.96 -6.48 39.71 -6.48C38.76 -6.48 38.1 -6.68 37.73 -7.07C37.37 -7.47 37.15 -8.31 37.07 -9.59C36.98 -10.88 36.94 -13.35 36.94 -17.01C36.94 -20.67 36.98 -23.14 37.07 -24.43C37.15 -25.72 37.37 -26.56 37.73 -26.95C38.1 -27.35 38.76 -27.55 39.71 -27.55C40.67 -27.55 41.76 -27.46 42.98 -27.3L42.98 -33.63C42.58 -33.86 41.95 -34.05 41.07 -34.2C40.2 -34.35 39.28 -34.42 38.33 -34.42C35.72 -34.42 33.79 -33.88 32.52 -32.79C31.25 -31.7 30.4 -29.96 29.97 -27.57C29.54 -25.18 29.33 -21.66 29.33 -17.01C29.33 -12.3 29.52 -8.76 29.92 -6.4C30.32 -4.05 31.15 -2.32 32.42 -1.24C33.69 -0.15 35.66 0.4 38.33 0.4C39.12 0.4 39.97 0.3 40.87 0.12Z M55.59 0L63.2 0L63.2 -34.02L55.59 -34.02Z M76.46 0L90.2 0L90.2 -6.87L84.07 -6.87L84.07 -13.75L89.46 -13.75L89.46 -20.62L84.07 -20.62L84.07 -27.15L90.2 -27.15L90.2 -34.02L76.46 -34.02Z M114.78 0L121.31 0L121.31 -34.02L114.09 -34.02L114.09 -20.87L113.79 -20.87L110.04 -34.02L103.06 -34.02L103.06 0L110.28 0L110.28 -15.03L110.48 -15.03Z M145.62 0.12C146.52 -0.06 147.26 -0.28 147.82 -0.54L147.82 -6.73C146.83 -6.56 145.71 -6.48 144.46 -6.48C143.5 -6.48 142.84 -6.68 142.48 -7.07C142.11 -7.47 141.89 -8.31 141.81 -9.59C141.73 -10.88 141.69 -13.35 141.69 -17.01C141.69 -20.67 141.73 -23.14 141.81 -24.43C141.89 -25.72 142.11 -26.56 142.48 -26.95C142.84 -27.35 143.5 -27.55 144.46 -27.55C145.41 -27.55 146.5 -27.46 147.72 -27.3L147.72 -33.63C147.32 -33.86 146.69 -34.05 145.82 -34.2C144.94 -34.35 144.03 -34.42 143.07 -34.42C140.47 -34.42 138.53 -33.88 137.26 -32.79C135.99 -31.7 135.14 -29.96 134.71 -27.57C134.28 -25.18 134.07 -21.66 134.07 -17.01C134.07 -12.3 134.27 -8.76 134.66 -6.4C135.06 -4.05 135.89 -2.32 137.16 -1.24C138.43 -0.15 140.4 0.4 143.07 0.4C143.86 0.4 144.71 0.3 145.62 0.12Z M160.33 0L174.08 0L174.08 -6.87L167.95 -6.87L167.95 -13.75L173.34 -13.75L173.34 -20.62L167.95 -20.62L167.95 -27.15L174.08 -27.15L174.08 -34.02L160.33 -34.02Z M194.95 0L202.51 0L202.51 -6.18L204.49 -6.18L204.49 -13.06L202.51 -13.06L202.51 -20.28L197.07 -20.28L194.95 -13.06L192.87 -13.06L197.32 -34.02L189.61 -34.02L185.75 -12.12L185.75 -6.18L194.95 -6.18Z"></path></g></svg><svg xmlns="http://www.w3.org/2000/svg" version="1.1" xlink="http://www.w3.org/1999/xlink" xmlns:svgjs="http://svgjs.com/svgjs" width="242.32" height="34.82" viewBox="3.119999885559082 -34.41999816894531 242.32000732421875 34.81999969482422" y="34.82"><g fill="#fff"><path d="M3.12 0L15.87 0L15.87 -2.08L5.34 -2.08L5.34 -16.17L14.54 -16.17L14.54 -18.25L5.34 -18.25L5.34 -31.95L15.87 -31.95L15.87 -34.02L3.12 -34.02Z M34.87 0L37.63 0L45 -34.02L42.83 -34.02L36.45 -3.81L36.15 -3.81L29.82 -34.02L27.5 -34.02Z M58.26 0L71.02 0L71.02 -2.08L60.48 -2.08L60.48 -16.17L69.68 -16.17L69.68 -18.25L60.48 -18.25L60.48 -31.95L71.02 -31.95L71.02 -34.02L58.26 -34.02Z M98.31 0L100.64 0L96.48 -14.84C98.03 -15.43 99.03 -16.48 99.48 -18C99.92 -19.52 100.14 -21.58 100.14 -24.18C100.14 -26.36 100.01 -28.11 99.75 -29.45C99.49 -30.79 98.86 -31.88 97.87 -32.74C96.88 -33.6 95.36 -34.02 93.32 -34.02L85.51 -34.02L85.51 0L87.73 0L87.73 -14.29L93.22 -14.29C93.72 -14.29 94.09 -14.31 94.36 -14.34ZM96.31 -17.21C95.64 -16.62 94.59 -16.32 93.17 -16.32L87.73 -16.32L87.73 -31.95L93.17 -31.95C94.59 -31.95 95.64 -31.65 96.31 -31.06C96.99 -30.46 97.42 -29.64 97.62 -28.58C97.82 -27.53 97.92 -26.05 97.92 -24.13C97.92 -22.25 97.82 -20.78 97.62 -19.71C97.42 -18.64 96.99 -17.8 96.31 -17.21Z M118.89 0L121.06 0L121.06 -13.7L128.43 -34.02L126.21 -34.02L120.17 -16.76L119.93 -16.76L113.84 -34.02L111.57 -34.02L118.89 -13.7Z M141.44 -34.02L141.44 0L148.56 0C151.56 0 153.58 -0.81 154.62 -2.42C155.66 -4.04 156.18 -6.2 156.18 -8.9C156.18 -11.24 155.84 -13.13 155.16 -14.56C154.49 -16 153.18 -16.91 151.23 -17.31L151.23 -17.51C152.88 -17.9 154.07 -18.76 154.82 -20.08C155.56 -21.4 155.93 -23.21 155.93 -25.52C155.93 -28.29 155.39 -30.4 154.32 -31.85C153.25 -33.3 151.41 -34.02 148.81 -34.02ZM152.37 -20C151.44 -18.87 150.14 -18.3 148.46 -18.3L143.61 -18.3L143.61 -31.95L148.46 -31.95C150.47 -31.95 151.86 -31.43 152.62 -30.39C153.37 -29.35 153.75 -27.6 153.75 -25.12C153.75 -22.85 153.29 -21.14 152.37 -20ZM152.79 -3.71C152.01 -2.62 150.6 -2.08 148.56 -2.08L143.61 -2.08L143.61 -16.22L148.56 -16.22C150.47 -16.22 151.85 -15.68 152.69 -14.59C153.53 -13.5 153.95 -11.69 153.95 -9.15C153.95 -6.61 153.56 -4.8 152.79 -3.71Z M173.31 -0.87C174.42 -0.02 176.24 0.4 178.78 0.4C181.32 0.4 183.14 -0.02 184.24 -0.87C185.35 -1.71 186.08 -3.28 186.44 -5.59C186.8 -7.9 186.99 -11.7 186.99 -17.01C186.99 -22.32 186.8 -26.13 186.44 -28.44C186.08 -30.74 185.35 -32.32 184.24 -33.16C183.14 -34 181.32 -34.42 178.78 -34.42C176.24 -34.42 174.42 -34 173.31 -33.16C172.21 -32.32 171.47 -30.74 171.11 -28.44C170.75 -26.13 170.57 -22.32 170.57 -17.01C170.57 -11.7 170.75 -7.9 171.11 -5.59C171.47 -3.28 172.21 -1.71 173.31 -0.87ZM182.73 -2.52C181.97 -1.96 180.66 -1.68 178.78 -1.68C176.86 -1.68 175.53 -1.96 174.77 -2.52C174.01 -3.08 173.49 -4.38 173.21 -6.43C172.93 -8.47 172.79 -12 172.79 -17.01C172.79 -22.02 172.93 -25.55 173.21 -27.6C173.49 -29.64 174.01 -30.94 174.77 -31.5C175.53 -32.06 176.86 -32.34 178.78 -32.34C180.66 -32.34 181.97 -32.06 182.73 -31.5C183.49 -30.94 184.02 -29.64 184.32 -27.6C184.61 -25.55 184.76 -22.02 184.76 -17.01C184.76 -12 184.61 -8.47 184.32 -6.43C184.02 -4.38 183.49 -3.08 182.73 -2.52Z M202.37 -34.02L202.37 0L208.84 0C211.38 0 213.2 -0.41 214.31 -1.24C215.41 -2.06 216.15 -3.6 216.51 -5.86C216.87 -8.12 217.05 -11.84 217.05 -17.01C217.05 -22.19 216.87 -25.91 216.51 -28.16C216.15 -30.42 215.41 -31.96 214.31 -32.79C213.2 -33.61 211.38 -34.02 208.84 -34.02ZM208.84 -2.08L204.54 -2.08L204.54 -31.95L208.84 -31.95C210.76 -31.95 212.09 -31.68 212.85 -31.13C213.61 -30.59 214.14 -29.32 214.43 -27.32C214.73 -25.33 214.88 -21.89 214.88 -17.01C214.88 -12.13 214.73 -8.7 214.43 -6.7C214.14 -4.71 213.61 -3.44 212.85 -2.89C212.09 -2.35 210.76 -2.08 208.84 -2.08Z M235.9 0L238.07 0L238.07 -13.7L245.44 -34.02L243.22 -34.02L237.18 -16.76L236.93 -16.76L230.85 -34.02L228.58 -34.02L235.9 -13.7Z"></path></g></svg></svg>