<svg xmlns="http://www.w3.org/2000/svg" version="1.1" xlink="http://www.w3.org/1999/xlink" xmlns:svgjs="http://svgjs.com/svgjs" width="100%" height="100%" viewBox="0.8899999856948853 -34.41999816894531 203.60000610351562 34.81999969482422"><g fill="#000000"><path d="M4.9 0.12C6.28 0.3 7.57 0.4 8.75 0.4C10.73 0.4 12.32 0.16 13.53 -0.32C14.73 -0.8 15.69 -1.86 16.42 -3.51C17.14 -5.16 17.51 -7.67 17.51 -11.03C17.51 -13.3 17.29 -15.12 16.86 -16.47C16.47 -17.72 15.94 -18.59 15.28 -19.09C14.62 -19.58 13.83 -19.95 12.91 -20.18L10.09 -20.87C9.4 -21.03 8.96 -21.31 8.78 -21.71C8.6 -22.11 8.51 -22.93 8.51 -24.18C8.51 -25.07 8.54 -25.72 8.61 -26.14C8.67 -26.55 8.82 -26.85 9.05 -27.05C9.25 -27.25 9.57 -27.38 10.01 -27.45C10.46 -27.51 11.18 -27.55 12.17 -27.55C13.19 -27.55 14.1 -27.51 14.91 -27.45C15.72 -27.38 16.22 -27.33 16.42 -27.3L16.42 -33.58C16.29 -33.61 15.94 -33.69 15.38 -33.83C14.82 -33.96 14.06 -34.09 13.11 -34.22C12.15 -34.35 11.09 -34.42 9.94 -34.42C7.96 -34.42 6.33 -34.17 5.04 -33.68C3.76 -33.18 2.74 -32.17 2 -30.64C1.26 -29.1 0.89 -26.85 0.89 -23.89C0.89 -21.12 1.14 -18.95 1.63 -17.38C2.13 -15.82 2.93 -14.9 4.06 -14.64L7.42 -13.85C8.21 -13.65 8.77 -13.44 9.1 -13.2C9.43 -12.97 9.64 -12.62 9.74 -12.14C9.84 -11.66 9.89 -10.85 9.89 -9.69C9.89 -8.37 9.74 -7.5 9.45 -7.07C9.25 -6.81 8.96 -6.64 8.58 -6.58C8.2 -6.51 7.58 -6.48 6.73 -6.48C5.54 -6.48 3.74 -6.56 1.34 -6.73L1.34 -0.54C2.32 -0.28 3.51 -0.06 4.9 0.12Z M40.87 0.12C41.78 -0.06 42.51 -0.28 43.07 -0.54L43.07 -6.73C42.09 -6.56 40.96 -6.48 39.71 -6.48C38.76 -6.48 38.1 -6.68 37.73 -7.07C37.37 -7.47 37.15 -8.31 37.07 -9.59C36.98 -10.88 36.94 -13.35 36.94 -17.01C36.94 -20.67 36.98 -23.14 37.07 -24.43C37.15 -25.72 37.37 -26.56 37.73 -26.95C38.1 -27.35 38.76 -27.55 39.71 -27.55C40.67 -27.55 41.76 -27.46 42.98 -27.3L42.98 -33.63C42.58 -33.86 41.95 -34.05 41.07 -34.2C40.2 -34.35 39.28 -34.42 38.33 -34.42C35.72 -34.42 33.79 -33.88 32.52 -32.79C31.25 -31.7 30.4 -29.96 29.97 -27.57C29.54 -25.18 29.33 -21.66 29.33 -17.01C29.33 -12.3 29.52 -8.76 29.92 -6.4C30.32 -4.05 31.15 -2.32 32.42 -1.24C33.69 -0.15 35.66 0.4 38.33 0.4C39.12 0.4 39.97 0.3 40.87 0.12Z M55.59 0L63.2 0L63.2 -34.02L55.59 -34.02Z M76.46 0L90.2 0L90.2 -6.87L84.07 -6.87L84.07 -13.75L89.46 -13.75L89.46 -20.62L84.07 -20.62L84.07 -27.15L90.2 -27.15L90.2 -34.02L76.46 -34.02Z M114.78 0L121.31 0L121.31 -34.02L114.09 -34.02L114.09 -20.87L113.79 -20.87L110.04 -34.02L103.06 -34.02L103.06 0L110.28 0L110.28 -15.03L110.48 -15.03Z M145.62 0.12C146.52 -0.06 147.26 -0.28 147.82 -0.54L147.82 -6.73C146.83 -6.56 145.71 -6.48 144.46 -6.48C143.5 -6.48 142.84 -6.68 142.48 -7.07C142.11 -7.47 141.89 -8.31 141.81 -9.59C141.73 -10.88 141.69 -13.35 141.69 -17.01C141.69 -20.67 141.73 -23.14 141.81 -24.43C141.89 -25.72 142.11 -26.56 142.48 -26.95C142.84 -27.35 143.5 -27.55 144.46 -27.55C145.41 -27.55 146.5 -27.46 147.72 -27.3L147.72 -33.63C147.32 -33.86 146.69 -34.05 145.82 -34.2C144.94 -34.35 144.03 -34.42 143.07 -34.42C140.47 -34.42 138.53 -33.88 137.26 -32.79C135.99 -31.7 135.14 -29.96 134.71 -27.57C134.28 -25.18 134.07 -21.66 134.07 -17.01C134.07 -12.3 134.27 -8.76 134.66 -6.4C135.06 -4.05 135.89 -2.32 137.16 -1.24C138.43 -0.15 140.4 0.4 143.07 0.4C143.86 0.4 144.71 0.3 145.62 0.12Z M160.33 0L174.08 0L174.08 -6.87L167.95 -6.87L167.95 -13.75L173.34 -13.75L173.34 -20.62L167.95 -20.62L167.95 -27.15L174.08 -27.15L174.08 -34.02L160.33 -34.02Z M194.95 0L202.51 0L202.51 -6.18L204.49 -6.18L204.49 -13.06L202.51 -13.06L202.51 -20.28L197.07 -20.28L194.95 -13.06L192.87 -13.06L197.32 -34.02L189.61 -34.02L185.75 -12.12L185.75 -6.18L194.95 -6.18Z"></path></g></svg>
