<svg xmlns="http://www.w3.org/2000/svg" version="1.1" xlink="http://www.w3.org/1999/xlink" xmlns:svgjs="http://svgjs.com/svgjs" width="100%" height="100%" viewBox="2.059999942779541 -51.16999816894531 462 51.7599983215332"><g fill="#080808"><path d="M11.29 0.22C14.45 0.47 17.35 0.59 20 0.59C23.72 0.59 26.76 0.22 29.11 -0.51C31.47 -1.25 33.35 -2.86 34.77 -5.33C36.2 -7.81 36.91 -11.49 36.91 -16.39C36.91 -20.46 36.44 -23.55 35.51 -25.66C34.63 -27.52 33.53 -28.82 32.2 -29.56C30.88 -30.29 29.24 -30.83 27.28 -31.17L20.73 -32.13C19.61 -32.32 18.81 -32.53 18.34 -32.75C17.88 -32.97 17.57 -33.32 17.42 -33.78C17.28 -34.25 17.2 -35 17.2 -36.02C17.2 -36.81 17.28 -37.43 17.42 -37.9C17.57 -38.37 17.84 -38.75 18.23 -39.04C18.53 -39.28 19.03 -39.44 19.74 -39.52C20.45 -39.59 21.47 -39.63 22.79 -39.63C26.91 -39.63 30.85 -39.41 34.63 -38.97L34.63 -49.7C33.01 -50.04 30.83 -50.37 28.08 -50.69C25.34 -51.01 22.6 -51.17 19.85 -51.17C16.08 -51.17 12.92 -50.78 10.37 -49.99C7.82 -49.21 5.8 -47.68 4.3 -45.4C2.81 -43.12 2.06 -39.85 2.06 -35.58C2.06 -30.93 2.55 -27.34 3.53 -24.81C4.51 -22.29 6.22 -20.83 8.68 -20.44L16.1 -19.34C17.96 -19.09 19.25 -18.85 19.96 -18.6C20.67 -18.36 21.15 -17.96 21.39 -17.42C21.64 -16.89 21.76 -16 21.76 -14.78C21.76 -13.9 21.71 -13.23 21.61 -12.79C21.52 -12.35 21.32 -11.98 21.03 -11.69C20.68 -11.4 20.12 -11.2 19.34 -11.1C18.55 -11 17.23 -10.95 15.37 -10.95C12.92 -10.95 8.87 -11.18 3.23 -11.62L3.23 -0.74C5.44 -0.34 8.12 -0.02 11.29 0.22Z M74.33 0.22C76.53 -0.02 78.32 -0.32 79.7 -0.66L79.7 -11.47C76.95 -11.13 74.18 -10.95 71.39 -10.95C68.84 -10.95 67.1 -11.24 66.17 -11.8C65.24 -12.36 64.66 -13.52 64.44 -15.26C64.22 -17 64.11 -20.34 64.11 -25.29C64.11 -30.19 64.22 -33.53 64.44 -35.29C64.66 -37.05 65.24 -38.22 66.17 -38.78C67.1 -39.35 68.84 -39.63 71.39 -39.63C72.52 -39.63 75.21 -39.46 79.48 -39.11L79.48 -49.85C78.1 -50.24 76.35 -50.56 74.22 -50.8C72.09 -51.05 70.02 -51.17 68.01 -51.17C62.37 -51.17 58.2 -50.39 55.51 -48.82C52.81 -47.25 51.04 -44.71 50.18 -41.21C49.32 -37.7 48.89 -32.4 48.89 -25.29C48.89 -18.18 49.32 -12.88 50.18 -9.37C51.04 -5.87 52.8 -3.33 55.47 -1.76C58.14 -0.2 62.32 0.59 68.01 0.59C70.02 0.59 72.12 0.47 74.33 0.22Z M92.64 0L107.78 0L107.78 -50.58L92.64 -50.58Z M121.9 0L153.36 0L153.36 -11.54L136.97 -11.54L136.97 -19.85L150.64 -19.85L150.64 -31.25L136.97 -31.25L136.97 -39.04L153.36 -39.04L153.36 -50.58L121.9 -50.58Z M191.81 0L205.56 0L205.56 -50.58L191.08 -50.58L191.08 -30.95L190.56 -30.95L182.11 -50.58L166.96 -50.58L166.96 0L181.45 0L181.45 -23.23L181.82 -23.23Z M244.31 0.22C246.51 -0.02 248.3 -0.32 249.67 -0.66L249.67 -11.47C246.93 -11.13 244.16 -10.95 241.37 -10.95C238.82 -10.95 237.08 -11.24 236.15 -11.8C235.22 -12.36 234.64 -13.52 234.42 -15.26C234.2 -17 234.09 -20.34 234.09 -25.29C234.09 -30.19 234.2 -33.53 234.42 -35.29C234.64 -37.05 235.22 -38.22 236.15 -38.78C237.08 -39.35 238.82 -39.63 241.37 -39.63C242.49 -39.63 245.19 -39.46 249.45 -39.11L249.45 -49.85C248.08 -50.24 246.33 -50.56 244.2 -50.8C242.06 -51.05 239.99 -51.17 237.98 -51.17C232.35 -51.17 228.18 -50.39 225.49 -48.82C222.79 -47.25 221.01 -44.71 220.16 -41.21C219.3 -37.7 218.87 -32.4 218.87 -25.29C218.87 -18.18 219.3 -12.88 220.16 -9.37C221.01 -5.87 222.78 -3.33 225.45 -1.76C228.12 -0.2 232.3 0.59 237.98 0.59C239.99 0.59 242.1 0.47 244.31 0.22Z M262.61 0L294.08 0L294.08 -11.54L277.69 -11.54L277.69 -19.85L291.36 -19.85L291.36 -31.25L277.69 -31.25L277.69 -39.04L294.08 -39.04L294.08 -50.58L262.61 -50.58Z M331.43 0L346.5 0L346.5 -17.94L359.44 -17.94L359.44 -29.48L346.5 -29.48L346.5 -39.04L361.57 -39.04L361.57 -50.58L331.43 -50.58Z M379.44 -1.69C382.13 -0.17 386.64 0.59 392.96 0.59C399.34 0.59 403.86 -0.17 406.53 -1.69C409.2 -3.21 410.85 -5.6 411.49 -8.86C412.13 -12.12 412.45 -17.6 412.45 -25.29C412.45 -32.99 412.13 -38.46 411.49 -41.72C410.85 -44.98 409.2 -47.37 406.53 -48.89C403.86 -50.41 399.34 -51.17 392.96 -51.17C386.64 -51.17 382.13 -50.41 379.44 -48.89C376.74 -47.37 375.09 -44.98 374.47 -41.72C373.86 -38.46 373.56 -32.99 373.56 -25.29C373.56 -17.6 373.86 -12.12 374.47 -8.86C375.09 -5.6 376.74 -3.21 379.44 -1.69ZM396.09 -11.65C395.57 -11.19 394.53 -10.95 392.96 -10.95C391.45 -10.95 390.43 -11.19 389.91 -11.65C389.4 -12.12 389.08 -13.2 388.96 -14.89C388.84 -16.58 388.77 -20.05 388.77 -25.29C388.77 -30.54 388.84 -34 388.96 -35.69C389.08 -37.38 389.4 -38.46 389.91 -38.93C390.43 -39.39 391.45 -39.63 392.96 -39.63C394.53 -39.63 395.57 -39.39 396.09 -38.93C396.6 -38.46 396.92 -37.38 397.05 -35.69C397.17 -34 397.23 -30.54 397.23 -25.29C397.23 -20.05 397.17 -16.58 397.05 -14.89C396.92 -13.2 396.6 -12.12 396.09 -11.65Z M448.47 0L464.06 0L457.81 -18.97C459.87 -20.24 461.23 -22.04 461.89 -24.37C462.55 -26.7 462.88 -29.8 462.88 -33.67C462.88 -37.84 462.53 -41.1 461.82 -43.45C461.11 -45.8 459.72 -47.58 457.66 -48.78C455.6 -49.98 452.54 -50.58 448.47 -50.58L425.9 -50.58L425.9 0L441.05 0L441.05 -16.76L443.91 -16.76ZM446.38 -27.94C445.86 -27.74 444.94 -27.64 443.62 -27.64L441.05 -27.64L441.05 -39.19L443.55 -39.19C444.97 -39.19 445.95 -39.08 446.49 -38.86C447.03 -38.63 447.37 -38.16 447.52 -37.42C447.66 -36.69 447.74 -35.34 447.74 -33.38C447.74 -31.47 447.64 -30.13 447.44 -29.37C447.25 -28.61 446.89 -28.13 446.38 -27.94Z"></path></g></svg>